<svg width="610" height="508" xmlns="http://www.w3.org/2000/svg" xmlns:xlink="http://www.w3.org/1999/xlink" xml:space="preserve" overflow="hidden"><defs><clipPath id="clip0"><rect x="742" y="1210" width="610" height="508"/></clipPath></defs><g clip-path="url(#clip0)" transform="translate(-742 -1210)"><path d="M1123 1292.5C1123 1275.1 1137.1 1261 1154.5 1261L1256.5 1261C1273.9 1261 1288 1275.1 1288 1292.5L1288 1292.5C1288 1309.9 1273.9 1324 1256.5 1324L1154.5 1324C1137.1 1324 1123 1309.9 1123 1292.5Z" fill="#73C902" fill-rule="evenodd"/><path d="M1205.5 1210C1222.9 1210 1237 1224.1 1237 1241.5L1237 1343.5C1237 1360.9 1222.9 1375 1205.5 1375L1205.5 1375C1188.1 1375 1174 1360.9 1174 1343.5L1174 1241.5C1174 1224.1 1188.1 1210 1205.5 1210Z" fill="#73C902" fill-rule="evenodd"/><path d="M1123 1635.5C1123 1618.1 1137.1 1604 1154.5 1604L1256.5 1604C1273.9 1604 1288 1618.1 1288 1635.5L1288 1635.5C1288 1652.9 1273.9 1667 1256.5 1667L1154.5 1667C1137.1 1667 1123 1652.9 1123 1635.5Z" fill="#4394F0" fill-rule="evenodd"/><path d="M1205.5 1553C1222.9 1553 1237 1567.1 1237 1584.5L1237 1686.5C1237 1703.9 1222.9 1718 1205.5 1718L1205.5 1718C1188.1 1718 1174 1703.9 1174 1686.5L1174 1584.5C1174 1567.1 1188.1 1553 1205.5 1553Z" fill="#4394F0" fill-rule="evenodd"/><g><g><g><path d="M271.328 381.074C267.424 379.122 260.917 367.193 245.735 334.009 234.457 309.5 224.263 288.462 222.745 287.161 221.227 285.859 201.056 276.099 177.849 265.689 154.642 255.061 133.82 244.651 131.652 242.265 129.7 240.096 127.964 235.324 127.964 232.071 127.964 228.818 129.7 224.046 131.652 221.877 133.82 219.491 154.642 209.081 177.849 198.453 201.056 188.043 221.227 178.283 222.745 176.981 224.263 175.68 234.24 155.076 245.084 131.218 255.929 107.36 266.123 86.7555 267.424 85.2373 268.942 83.936 272.412 82.2009 275.449 81.3333 285.643 78.9475 290.848 86.1049 312.32 132.953L332.491 177.415 378.688 198.453C418.595 216.672 425.102 220.359 427.271 225.781 429.44 230.77 429.44 233.372 427.271 238.361 425.102 243.783 418.595 247.47 378.688 265.689L332.491 286.727 312.32 331.189C288.896 382.592 284.341 387.797 271.328 381.074Z" fill="#FF8D00" transform="matrix(1 0 0 -1.00003 742.271 1701)"/></g></g></g></g></svg>